<?xml version="1.0" encoding="utf-8"?>
<!-- Generator: Adobe Illustrator 21.1.0, SVG Export Plug-In . SVG Version: 6.00 Build 0)  -->
<svg version="1.1" id="Layer_1" xmlns="http://www.w3.org/2000/svg" xmlns:xlink="http://www.w3.org/1999/xlink" x="0px" y="0px"
	 viewBox="0 0 40 40" style="enable-background:new 0 0 40 40;" xml:space="preserve">
<style type="text/css">
	.st0{fill:#FFFFFF;}
</style>
<path id="kryss" class="st0" d="M32.6,33.5c-0.1,0-0.4,0-0.6-0.2L20,21.1L8,33.2c-0.2,0.2-0.5,0.2-0.6,0.2c-0.1,0-0.3,0-0.6-0.2
	c-0.2-0.1-0.3-0.4-0.3-0.6c0-0.2,0.1-0.5,0.3-0.6l12-12L6.7,7.9c-0.2-0.3-0.2-0.7,0-1l0.1-0.1l0.1-0.1c0.3-0.2,0.7-0.2,1,0L8,6.8
	l12,12.1l12-12c0.1-0.2,0.4-0.3,0.6-0.3c0,0,0,0,0,0c0.2,0,0.4,0.1,0.6,0.3c0.2,0.1,0.3,0.3,0.3,0.6c0,0.2-0.1,0.5-0.3,0.6l-12,12
	l12,12c0.2,0.1,0.3,0.4,0.3,0.6c0,0.2-0.1,0.4-0.3,0.6C33,33.5,32.7,33.5,32.6,33.5z M32.6,32.3C32.6,32.3,32.6,32.4,32.6,32.3
	L32.6,32.3z"/>
</svg>
