<?xml version="1.0" encoding="utf-8"?>
<!-- Generator: Adobe Illustrator 22.0.1, SVG Export Plug-In . SVG Version: 6.00 Build 0)  -->
<svg version="1.1" id="Layer_1" xmlns="http://www.w3.org/2000/svg" xmlns:xlink="http://www.w3.org/1999/xlink" x="0px" y="0px"
	 viewBox="0 0 40 40" style="enable-background:new 0 0 40 40;" xml:space="preserve">
<style type="text/css">
	.st0{fill:#222222;}
</style>
<g transform="translate(0,-952.36218)">
	<path class="st0" d="M12.8,961.2c-0.1,0-0.2,0-0.3,0.1L2.1,972.2c-0.2,0.2-0.2,0.4,0,0.6l10.4,10.8c0.2,0.2,0.4,0.2,0.6,0
		c0.2-0.2,0.2-0.4,0-0.6l-9.7-10.1h34.2c0.2,0,0.4-0.2,0.4-0.4s-0.2-0.4-0.4-0.4l0,0H3.4l9.7-10.1c0.2-0.2,0.2-0.4,0-0.6
		C13,961.3,12.9,961.2,12.8,961.2z"/>
</g>
</svg>
