<?xml version="1.0" encoding="utf-8"?>
<!-- Generator: Adobe Illustrator 22.0.1, SVG Export Plug-In . SVG Version: 6.00 Build 0)  -->
<svg version="1.1" id="Layer_1" xmlns="http://www.w3.org/2000/svg" xmlns:xlink="http://www.w3.org/1999/xlink" x="0px" y="0px"
	 viewBox="0 0 40 40" style="enable-background:new 0 0 40 40;" xml:space="preserve">
<style type="text/css">
	.st0{fill:#000222;}
</style>
<g>
	<path class="st0" d="M23.9,23h-7.8c-0.9,0-1.6,0.7-1.6,1.6V40h1V24.6c0-0.3,0.3-0.6,0.6-0.6h1.8v0.2c0,0.7,0.6,1.3,1.3,1.3h1.6
		c0.7,0,1.3-0.6,1.3-1.3V24h1.8c0.3,0,0.6,0.3,0.6,0.6V40h1V24.6C25.5,23.7,24.8,23,23.9,23z M21.1,24.2c0,0.2-0.1,0.3-0.3,0.3h-1.6
		c-0.2,0-0.3-0.1-0.3-0.3V24h2.2C21.1,24,21.1,24.2,21.1,24.2z"/>
</g>
<g>
	<path class="st0" d="M25.5,20.3c-0.2,0-0.3-0.1-0.4-0.2C24,18.6,22,17.6,20,17.6c-1.9,0-3.8,0.9-5.1,2.5c-0.2,0.2-0.5,0.2-0.7,0.1
		c-0.2-0.2-0.2-0.5-0.1-0.7c1.5-1.8,3.7-2.9,5.9-2.9c2.3,0,4.6,1.1,5.9,2.9c0.2,0.2,0.1,0.5-0.1,0.7C25.7,20.3,25.6,20.3,25.5,20.3z
		"/>
</g>
<g>
	<path class="st0" d="M10,18.2c-0.1,0-0.2,0-0.3-0.1c-0.2-0.1-0.3-0.5-0.2-0.7c2.2-3.5,6.1-5.6,10.4-5.6c4.2,0,8.1,2.1,10.4,5.6
		c0.2,0.2,0.1,0.5-0.1,0.7c-0.2,0.2-0.5,0.1-0.7-0.1c-2.1-3.2-5.7-5.2-9.6-5.2c-3.9,0-7.5,1.9-9.6,5.2C10.3,18.1,10.2,18.2,10,18.2z
		"/>
</g>
<g>
	<path class="st0" d="M4.1,15.3c-0.1,0-0.2,0-0.3-0.1c-0.2-0.1-0.3-0.4-0.2-0.7C7.1,8.8,13.3,5.2,20,5.2s12.9,3.6,16.3,9.3
		c0.1,0.2,0.1,0.5-0.2,0.7c-0.2,0.1-0.5,0.1-0.7-0.2C32.2,9.6,26.3,6.2,20,6.2S7.8,9.6,4.5,15.1C4.4,15.2,4.3,15.3,4.1,15.3z"/>
</g>
</svg>
