<?xml version="1.0" encoding="utf-8"?>
<!-- Generator: Adobe Illustrator 22.0.1, SVG Export Plug-In . SVG Version: 6.00 Build 0)  -->
<svg version="1.1" id="Layer_1" xmlns="http://www.w3.org/2000/svg" xmlns:xlink="http://www.w3.org/1999/xlink" x="0px" y="0px"
	 viewBox="0 0 40 40" style="enable-background:new 0 0 40 40;" xml:space="preserve">
<style type="text/css">
	.st0{fill:#222222;}
</style>
<g transform="translate(0,-952.36218)">
	<path class="st0" d="M2.3,960c-0.2,0-0.4,0.2-0.4,0.4s0.2,0.4,0.4,0.4h35.2c0.2,0,0.4-0.2,0.4-0.4s-0.2-0.4-0.4-0.4l0,0H2.3
		C2.4,960,2.3,960,2.3,960z M2.3,972c-0.2,0-0.4,0.2-0.4,0.4s0.2,0.4,0.4,0.4h35.2c0.2,0,0.4-0.2,0.4-0.4s-0.2-0.4-0.4-0.4l0,0H2.3
		C2.4,972,2.3,972,2.3,972z M2.3,983.9c-0.2,0-0.4,0.2-0.4,0.4s0.2,0.4,0.4,0.4h35.2c0.2,0,0.4-0.2,0.4-0.4s-0.2-0.4-0.4-0.4l0,0
		H2.3C2.4,983.9,2.3,983.9,2.3,983.9z"/>
</g>
</svg>
