<?xml version="1.0" encoding="utf-8"?>
<!-- Generator: Adobe Illustrator 22.0.1, SVG Export Plug-In . SVG Version: 6.00 Build 0)  -->
<svg version="1.1" id="Layer_1" xmlns="http://www.w3.org/2000/svg" xmlns:xlink="http://www.w3.org/1999/xlink" x="0px" y="0px"
	 viewBox="0 0 40 40" style="enable-background:new 0 0 40 40;" xml:space="preserve">
<style type="text/css">
	.st0{fill:#222222;}
</style>
<g transform="translate(0,-952.36215)">
	<path class="st0" d="M20,954.4c-6.7,0-12.8,3.8-15.9,9.3l-1.2-6.3c0-0.2-0.2-0.4-0.5-0.4c-0.2,0-0.4,0.2-0.4,0.5l0,0l1.3,7.2
		c0,0.2,0.3,0.4,0.5,0.4l8.1-1.3c0.2,0,0.4-0.2,0.4-0.5c0-0.2-0.2-0.4-0.5-0.4c0,0,0,0-0.1,0l-6.9,1.2c3-5.2,8.8-8.8,15.1-8.8
		c9.4,0,17.1,7.6,17.1,17.1c0,0.2,0.2,0.5,0.4,0.5s0.5-0.2,0.5-0.4l0,0C38,962.4,29.9,954.4,20,954.4z M2.4,971.9
		c-0.2,0-0.4,0.2-0.4,0.5c0,9.9,8.1,18,18,18c6.7,0,12.8-3.8,15.9-9.3l1.2,6.3c0,0.2,0.2,0.5,0.4,0.5s0.5-0.2,0.5-0.4
		c0-0.1,0-0.1,0-0.2l-1.3-7.2c0-0.2-0.3-0.4-0.5-0.4l-8.1,1.3c-0.2,0-0.4,0.2-0.4,0.5s0.2,0.4,0.5,0.4c0,0,0,0,0.1,0l6.9-1.2
		c-3,5.2-8.8,8.8-15.1,8.8c-9.4,0-17.1-7.6-17.1-17.1C2.9,972.1,2.7,971.9,2.4,971.9L2.4,971.9z"/>
</g>
</svg>
