<?xml version="1.0" encoding="utf-8"?>
<!-- Generator: Adobe Illustrator 22.0.1, SVG Export Plug-In . SVG Version: 6.00 Build 0)  -->
<svg version="1.1" id="Layer_1" xmlns="http://www.w3.org/2000/svg" xmlns:xlink="http://www.w3.org/1999/xlink" x="0px" y="0px"
	 viewBox="0 0 40 40" style="enable-background:new 0 0 40 40;" xml:space="preserve">
<style type="text/css">
	.st0{fill:#222222;}
</style>
<g>
	<path class="st0" d="M34.9,34.3c0.2,0.1,0.2,0.4,0,0.5C34.8,35,34.7,35,34.6,35c-0.1,0-0.2,0-0.3-0.1L20,20.5L5.7,34.9
		C5.6,35,5.5,35,5.4,35s-0.2,0-0.3-0.1c-0.2-0.1-0.2-0.4,0-0.5L19.5,20L5.1,5.7C5,5.5,5,5.3,5.1,5.1C5.3,5,5.5,5,5.7,5.1L20,19.5
		L34.3,5.1c0.1-0.2,0.4-0.2,0.5,0c0.2,0.1,0.2,0.4,0,0.5L20.5,20L34.9,34.3z"/>
</g>
</svg>
